
<svg xmlns="http://www.w3.org/2000/svg" version="1.1" xmlns:xlink="http://www.w3.org/1999/xlink" preserveAspectRatio="none" x="0px" y="0px" width="64px" height="64px" viewBox="0 0 64 64">
<defs>
<path id="Layer3_0_1_STROKES" stroke="#FFFFFF" stroke-width="4" stroke-linejoin="round" stroke-linecap="round" fill="none" d="
M 25.4 25.4
L 38.45 25.4"/>

<path id="Layer3_1_1_STROKES" stroke="#FFFFFF" stroke-width="4" stroke-linejoin="round" stroke-linecap="round" fill="none" d="
M 8.5 3.55
L 55.5 3.55
Q 57.55 3.55 59 5 60.45 6.45 60.45 8.5
L 60.45 13.5 3.55 13.5 3.55 8.5
Q 3.55 6.45 5 5 6.45 3.55 8.5 3.55 Z"/>

<path id="Layer3_2_1_STROKES" stroke="#FFFFFF" stroke-width="4" stroke-linejoin="round" stroke-linecap="round" fill="none" d="
M 8.558480072021485 13.503736877441407
L 55.40489730834961 13.503736877441407 55.40489730834961 55.46829376220703
Q 55.40489730834961 60.48797760009766 50.3999382019043 60.48797760009766
L 13.563439178466798 60.48797760009766
Q 8.558480072021485 60.48797760009766 8.558480072021485 55.46829376220703
L 8.558480072021485 13.503736877441407 Z"/>
</defs>

<g transform="matrix( 1, 0, 0, 1, 0,0) ">
<use xlink:href="#Layer3_0_1_STROKES"/>
</g>

<g transform="matrix( 1, 0, 0, 1, 0,0) ">
<use xlink:href="#Layer3_1_1_STROKES"/>
</g>

<g transform="matrix( 1.0009918212890625, 0, 0, 1.003936767578125, 0,-0.2) ">
<use xlink:href="#Layer3_2_1_STROKES" transform="matrix( 0.9990081787109375, 0, 0, 0.9960784912109375, 0,0.15) "/>
</g>
</svg>
